<svg width="1128" height="191" viewBox="0 0 1128 191" fill="none" xmlns="http://www.w3.org/2000/svg">
  <!-- Fond dégradé -->
  <rect width="1128" height="191" fill="url(#gradient)"/>
  
  <!-- Logo -->
  <g transform="translate(40, 35) scale(3.5)">
    <path d="M2 9L12 4L22 9L12 14L2 9Z" fill="white"/>
    <path d="M22 9V16" stroke="white" stroke-width="2" stroke-linecap="round"/>
    <path d="M7 10.5V16.5C7 16.5 9 15 12 15C15 15 17 16.5 17 16.5V10.5" stroke="white" stroke-width="2" stroke-linecap="round"/>
    <circle cx="12" cy="15" r="1" fill="white"/>
    <circle cx="9" cy="16" r="1" fill="white"/>
    <circle cx="15" cy="16" r="1" fill="white"/>
  </g>
  
  <!-- Texte -->
  <text x="40" y="140" fill="white" font-family="Arial" font-weight="bold" font-size="50">LearnToGo</text>
  <text x="40" y="170" fill="white" font-family="Arial" font-size="24">L'excellence académique à portée de clic</text>
  
  <!-- Points décoratifs -->
  <circle cx="800" cy="50" r="2" fill="white" opacity="0.3"/>
  <circle cx="820" cy="70" r="2" fill="white" opacity="0.3"/>
  <circle cx="840" cy="90" r="2" fill="white" opacity="0.3"/>
  <circle cx="860" cy="110" r="2" fill="white" opacity="0.3"/>
  <circle cx="880" cy="130" r="2" fill="white" opacity="0.3"/>
  
  <!-- Définition du dégradé -->
  <defs>
    <linearGradient id="gradient" x1="0" y1="0" x2="1128" y2="191" gradientUnits="userSpaceOnUse">
      <stop offset="0%" stop-color="#7C3AED"/>
      <stop offset="100%" stop-color="#6D28D9"/>
    </linearGradient>
  </defs>
</svg> 